<?xml version="1.0" encoding="UTF-8"?>
<svg width="1440px" height="832px" viewBox="0 0 1440 832" version="1.1" xmlns="http://www.w3.org/2000/svg" xmlns:xlink="http://www.w3.org/1999/xlink">
    <!-- Generator: Sketch 51.1 (57501) - http://www.bohemiancoding.com/sketch -->
    <title>Group</title>
    <desc>Created with Sketch.</desc>
    <defs>
        <polygon id="path-1" points="0 0 1593 0 1593 277.270818 0 277.270818"></polygon>
        <polygon id="path-3" points="0 0 1547.30354 0 1547.30354 277.270818 0 277.270818"></polygon>
        <polygon id="path-5" points="0 0 1539 0 1539 277 0 277"></polygon>
        <polygon id="path-7" points="0 0 1539 0 1539 223.199475 0 223.199475"></polygon>
    </defs>
    <g id="Welcome" stroke="none" stroke-width="1" fill="none" fill-rule="evenodd" opacity="0.24">
        <g id="Desktop-HD-Copy" transform="translate(0.000000, -76.000000)">
            <g id="Group" transform="translate(-109.000000, 76.000000)">
                <g id="Line" opacity="0.703738839">
                    <g id="Group-3" transform="translate(796.500000, 139.186109) scale(-1, -1) translate(-796.500000, -139.186109) translate(0.000000, 0.186109)">
                        <mask id="mask-2" fill="white">
                            <use xlink:href="#path-1"></use>
                        </mask>
                        <g id="Clip-2"></g>
                        <path d="M0.955788828,231.676311 L0.955788828,207.562103 C0.81648496,207.498784 0.69583786,207.467489 0.591359958,207.467489 C-0.926057181,207.465305 0.955788828,214.155974 0.955788828,231.676311 Z M1241.00898,0.235807305 C1002.43244,6.95485991 503.444743,222.942707 260.906758,224.398308 C94.9386362,224.405586 0.955788828,126.145264 0.955788828,126.145264 L0.955788828,207.562103 C6.91102921,210.249141 45.8402415,269.093253 254.687835,276.799931 C263.299799,277.117252 272.043604,277.270818 280.993878,277.270818 C551.340398,277.270818 970.846535,136.710013 1209.85466,136.71438 C1216.65319,136.71438 1223.31614,136.827917 1229.81491,137.062268 C1550.28844,148.60227 1593,196.741895 1593,196.741895 L1593,126.145264 C1593,126.145264 1479.29819,-0.00436680195 1257.64708,0 C1252.17194,0.000727800325 1246.6172,0.0778746348 1241.00898,0.235807305 Z M1402.97211,20.3536639 C1439.85281,30.777948 1475.02704,45.3164873 1507.51966,63.5653526 C1560.8718,93.5296198 1589.49128,123.878166 1591.75622,126.327941 L1591.75622,194.36126 C1586.48008,190.332886 1570.99372,180.89841 1532.09933,170.566556 C1502.55945,162.720141 1465.52452,155.983621 1422.02191,150.544042 C1367.69341,143.750026 1303.05144,138.969833 1229.89079,136.335924 C1223.45669,136.103755 1216.71538,135.98658 1209.85466,135.98658 C1093.81329,135.984396 937.643707,168.566561 772.30494,203.062113 C599.155207,239.18721 420.111179,276.543017 280.993878,276.543017 C272.031167,276.543017 263.207759,276.385085 254.766193,276.073586 C176.114234,273.171119 112.401371,262.704622 65.3975096,244.964489 C27.9210377,230.818962 12.0976107,216.191631 5.34137312,209.945649 C3.78042352,208.502421 2.8973365,207.697473 2.19957337,207.251332 L2.19957337,128.797368 C9.18093599,135.49022 31.6834859,155.760187 67.5268688,175.801624 C93.1276859,190.115273 120.432488,201.522088 148.685054,209.704747 C184.032167,219.942714 220.963861,225.133386 258.452771,225.133386 C290.859577,224.946341 325.193005,221.597004 365.88466,214.885957 C402.05889,208.920906 442.450793,200.417287 489.372565,188.891113 C576.432507,167.503973 672.926556,138.779149 766.243978,110.999739 C854.683278,84.6722899 946.135024,57.4481909 1027.82306,37.0523146 C1119.2064,14.2350466 1188.95908,2.43012529 1241.06868,0.962879831 C1246.58611,0.807130561 1252.16448,0.727800325 1257.65454,0.727800325 C1308.00792,0.727800325 1356.89736,7.33113268 1402.97211,20.3536639 Z" id="Fill-1" fill-opacity="0.5" fill="#000000" mask="url(#mask-2)"></path>
                    </g>
                    <g id="Group-3-Copy" transform="translate(793.494997, 693.000000) scale(-1, -1) translate(-793.494997, -693.000000) translate(19.494997, 554.000000)">
                        <mask id="mask-4" fill="white">
                            <use xlink:href="#path-3"></use>
                        </mask>
                        <g id="Clip-2"></g>
                        <path d="M0.57439633,207.467489 C-0.899492498,207.465305 0.92837127,214.155974 0.92837127,231.676311 L0.92837127,207.562103 C0.793063443,207.498784 0.675877201,207.467489 0.57439633,207.467489 M1221.57048,0 C1216.2524,0.000727800325 1210.857,0.0778746348 1205.40965,0.235807305 C973.676877,6.95485991 489.003033,222.942707 253.422441,224.398308 C252.620259,224.403402 251.838615,224.405586 251.038849,224.405586 C92.2152464,224.405586 0.92837127,126.145264 0.92837127,126.145264 L0.92837127,207.562103 C6.71278087,210.249141 44.525278,269.093253 247.381913,276.799931 C255.746836,277.117252 264.239819,277.270818 272.933346,277.270818 C535.524763,277.270818 942.997035,136.710013 1175.14902,136.71438 C1181.75253,136.71438 1188.22435,136.827917 1194.5367,137.062268 C1505.81719,148.60227 1547.30354,196.741895 1547.30354,196.741895 L1547.30354,126.145264 C1547.30354,126.145264 1436.86335,-0.00436680195 1221.57048,0 M1221.58377,0.727800325 C1270.48668,0.727800325 1317.97368,7.33113268 1362.72675,20.3536639 C1398.54949,30.777948 1432.71472,45.3164873 1464.27527,63.5653526 C1516.09696,93.5296198 1543.89547,123.878166 1546.09543,126.327941 L1546.09543,194.36126 C1540.97065,190.332886 1525.92852,180.89841 1488.14985,170.566556 C1459.45735,162.720141 1423.48479,155.983621 1381.23009,150.544042 C1328.46004,143.750026 1265.67238,138.969833 1194.6104,136.335924 C1188.36087,136.103755 1181.81293,135.98658 1175.14902,135.98658 C1062.43639,135.984396 910.746656,168.566561 750.150763,203.062113 C581.967966,239.18721 408.059958,276.543017 272.933346,276.543017 C264.227738,276.543017 255.657436,276.385085 247.458024,276.073586 C171.062258,273.171119 109.177049,262.704622 63.5215304,244.964489 C27.1201006,230.818962 11.7505812,216.191631 5.18815161,209.945649 C3.67197908,208.502421 2.81422411,207.697473 2.13647687,207.251332 L2.13647687,128.797368 C8.91757358,135.49022 30.77462,155.760187 65.5898071,175.801624 C90.4562447,190.115273 116.977787,201.522088 144.419905,209.704747 C178.753058,219.942714 214.625338,225.133386 251.038849,225.133386 C251.842239,225.133386 252.628716,225.131202 253.434522,225.126108 C282.51604,224.946341 315.864587,221.597004 355.38897,214.885957 C390.525513,208.920906 429.758742,200.417287 475.334526,188.891113 C559.897085,167.503973 653.623126,138.779149 744.263664,110.999739 C830.166013,84.6722899 918.994393,57.4481909 998.339144,37.0523146 C1087.10108,14.2350466 1154.85285,2.43012529 1205.46764,0.962879831 C1210.8268,0.807130561 1216.24515,0.727800325 1221.57773,0.727800325 L1221.58377,0.727800325" id="Fill-1" fill-opacity="0.4" fill="#4A4A4A" mask="url(#mask-4)"></path>
                    </g>
                </g>
                <g id="Wing" opacity="0.7" transform="translate(28.000000, 504.000000)">
                    <g id="Group-3" opacity="0.1">
                        <mask id="mask-6" fill="white">
                            <use xlink:href="#path-5"></use>
                        </mask>
                        <g id="Clip-2"></g>
                        <path d="M1539,196.549587 C1539,196.549587 1497.73627,148.45686 1188.12612,136.9281 C953.809664,128.203005 512.814071,286.708908 246.053795,276.52963 C-28.5795146,266.050063 0.922730076,160.922113 0.922730076,231.44997 L0.922730076,126.021731 C0.922730076,126.021731 92.6161678,225.168628 252.061909,224.179057 C486.378368,222.724874 968.451438,6.94744274 1198.94073,0.234935847 C1423.6442,-6.30888586 1539,126.021731 1539,126.021731 L1539,196.549587 Z" id="Fill-1" fill="#000000" mask="url(#mask-6)"></path>
                    </g>
                    <g id="Group-3" opacity="0.1" transform="translate(0.000000, 46.530184)">
                        <mask id="mask-8" fill="white">
                            <use xlink:href="#path-7"></use>
                        </mask>
                        <g id="Clip-2"></g>
                        <path d="M1539,162.728407 C1539,162.728407 1497.73627,108.510637 1188.12612,95.5135858 C953.809664,85.6772706 512.814071,234.041692 246.053795,222.565991 C-28.5795146,210.751757 0.922730076,122.563453 0.922730076,202.073668 L0.922730076,83.2181918 C0.922730076,83.2181918 86.6080535,223.681593 246.053795,222.565991 C480.370254,220.926605 982.870913,7.99661036 1213.3602,0.429205171 C1438.06368,-6.94803126 1539,83.2181918 1539,83.2181918 L1539,162.728407 Z" id="Fill-1" fill="#000000" mask="url(#mask-8)"></path>
                    </g>
                </g>
            </g>
        </g>
    </g>
</svg>