<?xml version="1.0" encoding="utf-8"?>
<!-- Generator: Adobe Illustrator 22.0.0, SVG Export Plug-In . SVG Version: 6.00 Build 0)  -->
<svg version="1.1" id="Layer_1" xmlns="http://www.w3.org/2000/svg" xmlns:xlink="http://www.w3.org/1999/xlink" x="0px" y="0px"
	 viewBox="0 0 1440 832" style="enable-background:new 0 0 1440 832;" xml:space="preserve">
<style type="text/css">
	.st0{opacity:0.2;}
	.st1{filter:url(#Adobe_OpacityMaskFilter);}
	.st2{fill:#FFFFFF;}
	.st3{mask:url(#mask-2_1_);fill:#FFFFFF;}
	.st4{filter:url(#Adobe_OpacityMaskFilter_1_);}
	.st5{mask:url(#mask-4_1_);fill:#FFFFFF;}
	.st6{opacity:0.4;}
	.st7{opacity:5.000000e-02;}
	.st8{filter:url(#Adobe_OpacityMaskFilter_2_);}
	.st9{mask:url(#mask-6_1_);fill:#FFFFFF;}
	.st10{opacity:0.1;}
	.st11{filter:url(#Adobe_OpacityMaskFilter_3_);}
	.st12{mask:url(#mask-8_1_);fill:#FFFFFF;}
</style>
<title>Group</title>
<desc>Created with Sketch.</desc>
<g id="Welcome">
	<g id="Desktop-HD" transform="translate(0.000000, -76.000000)">
		<g id="Group" transform="translate(-109.000000, 76.000000)">
			<g id="Line" class="st0">
				
					<g id="Group-3" transform="translate(796.500000, 139.186109) scale(-1, -1) translate(-796.500000, -139.186109) translate(0.000000, 0.186109)">
					<g id="Clip-2">
					</g>
					<defs>
						<filter id="Adobe_OpacityMaskFilter" filterUnits="userSpaceOnUse">
							<feColorMatrix  type="matrix" values="1 0 0 0 0  0 1 0 0 0  0 0 1 0 0  0 0 0 1 0"/>
						</filter>
					</defs>
					<mask maskUnits="userSpaceOnUse" id="mask-2_1_">
						<g class="st1">
							<polygon id="path-1_1_" class="st2" points="-10,0 1583,0 1583,277.3 -10,277.3 							"/>
						</g>
					</mask>
					<path id="Fill-1" class="st3" d="M-9,231.7v-24.1c-0.1-0.1-0.3-0.1-0.4-0.1C-10.9,207.5-9,214.2-9,231.7z M1231,0.2
						C992.4,7,493.4,222.9,250.9,224.4c-166,0-260-98.3-260-98.3v81.4c6,2.7,44.9,61.5,253.7,69.2c8.6,0.3,17.4,0.5,26.3,0.5
						c270.3,0,689.9-140.6,928.9-140.6c6.8,0,13.5,0.1,20,0.3c320.5,11.5,363.2,59.7,363.2,59.7v-70.6c0,0-113.7-126.1-335.4-126.1
						C1242.2,0,1236.6,0.1,1231,0.2z M1393,20.4c36.9,10.4,72.1,25,104.5,43.2c53.4,30,82,60.3,84.2,62.8v68
						c-5.3-4-20.8-13.5-59.7-23.8c-29.5-7.8-66.6-14.6-110.1-20c-54.3-6.8-119-11.6-192.1-14.2c-6.4-0.2-13.2-0.3-20-0.3
						c-116,0-272.2,32.6-437.5,67.1c-173.1,36.1-352.2,73.5-491.3,73.5c-9,0-17.8-0.2-26.2-0.5c-78.7-2.9-142.4-13.4-189.4-31.1
						c-37.5-14.1-53.3-28.8-60.1-35c-1.6-1.4-2.4-2.2-3.1-2.7v-78.5c7,6.7,29.5,27,65.3,47c25.6,14.3,52.9,25.7,81.2,33.9
						c35.3,10.2,72.3,15.4,109.8,15.4c32.4-0.2,66.7-3.5,107.4-10.2c36.2-6,76.6-14.5,123.5-26c87.1-21.4,183.6-50.1,276.9-77.9
						c88.4-26.3,179.9-53.6,261.6-73.9C1109.2,14.2,1179,2.4,1231.1,1c5.5-0.2,11.1-0.2,16.6-0.2C1298,0.7,1346.9,7.3,1393,20.4z"/>
				</g>
				
					<g id="Group-3-Copy" transform="translate(793.494997, 693.000000) scale(-1, -1) translate(-793.494997, -693.000000) translate(19.494997, 554.000000)">
					<g id="Clip-2_1_">
					</g>
					<defs>
						<filter id="Adobe_OpacityMaskFilter_1_" filterUnits="userSpaceOnUse">
							<feColorMatrix  type="matrix" values="1 0 0 0 0  0 1 0 0 0  0 0 1 0 0  0 0 0 1 0"/>
						</filter>
					</defs>
					<mask maskUnits="userSpaceOnUse" id="mask-4_1_">
						<g class="st4">
							<polygon id="path-3_1_" class="st2" points="-10,0 1537.3,0 1537.3,277.3 -10,277.3 							"/>
						</g>
					</mask>
					<path id="Fill-1_1_" class="st5" d="M-9.4,207.5c-1.5,0,0.4,6.7,0.4,24.2v-24.1C-9.2,207.5-9.3,207.5-9.4,207.5 M1211.6,0
						c-5.3,0-10.7,0.1-16.2,0.2C963.7,7,479,222.9,243.4,224.4c-0.8,0-1.6,0-2.4,0c-158.8,0-250.1-98.3-250.1-98.3v81.4
						c5.8,2.7,43.6,61.5,246.5,69.2c8.4,0.3,16.9,0.5,25.6,0.5c262.6,0,670.1-140.6,902.2-140.6c6.6,0,13.1,0.1,19.4,0.3
						c311.3,11.5,352.8,59.7,352.8,59.7v-70.6C1537.3,126.1,1426.9,0,1211.6,0 M1211.6,0.7c48.9,0,96.4,6.6,141.1,19.6
						c35.8,10.4,70,25,101.5,43.2c51.8,30,79.6,60.3,81.8,62.8v68c-5.1-4-20.2-13.5-57.9-23.8c-28.7-7.8-64.7-14.6-106.9-20
						c-52.8-6.8-115.6-11.6-186.6-14.2c-6.2-0.2-12.8-0.3-19.5-0.3c-112.7,0-264.4,32.6-425,67.1c-168.2,36.1-342.1,73.5-477.2,73.5
						c-8.7,0-17.3-0.2-25.5-0.5c-76.4-2.9-138.3-13.4-183.9-31.1c-36.4-14.1-51.8-28.8-58.3-35c-1.5-1.4-2.4-2.2-3.1-2.7v-78.5
						c6.8,6.7,28.6,27,63.5,47c24.9,14.3,51.4,25.7,78.8,33.9c34.3,10.2,70.2,15.4,106.6,15.4c0.8,0,1.6,0,2.4,0
						c29.1-0.2,62.4-3.5,102-10.2c35.1-6,74.4-14.5,119.9-26c84.6-21.4,178.3-50.1,268.9-77.9C820.2,84.7,909,57.4,988.3,37.1
						c88.8-22.8,156.5-34.6,207.1-36.1C1200.8,0.8,1206.2,0.7,1211.6,0.7L1211.6,0.7"/>
				</g>
			</g>
			<g id="Wing" transform="translate(28.000000, 504.000000)" class="st6">
				<g id="Group-3_1_" class="st7">
					<g id="Clip-2_2_">
					</g>
					<defs>
						<filter id="Adobe_OpacityMaskFilter_2_" filterUnits="userSpaceOnUse" x="10" y="0" width="1539" height="277">
							<feColorMatrix  type="matrix" values="1 0 0 0 0  0 1 0 0 0  0 0 1 0 0  0 0 0 1 0"/>
						</filter>
					</defs>
					<mask maskUnits="userSpaceOnUse" x="10" y="0" width="1539" height="277" id="mask-6_1_">
						<g class="st8">
							<polygon id="path-5_1_" class="st2" points="10,0 1549,0 1549,277 10,277 							"/>
						</g>
					</mask>
					<path id="Fill-1_2_" class="st9" d="M1549,196.5c0,0-41.3-48.1-350.9-59.6c-234.3-8.7-675.3,149.8-942.1,139.6
						C-18.6,266.1,10.9,160.9,10.9,231.4V126c0,0,91.7,99.1,251.1,98.2C496.4,222.7,978.5,6.9,1208.9,0.2
						C1433.6-6.3,1549,126,1549,126V196.5z"/>
				</g>
				<g id="Group-3_2_" transform="translate(0.000000, 46.530184)" class="st10">
					<g id="Clip-2_3_">
					</g>
					<defs>
						<filter id="Adobe_OpacityMaskFilter_3_" filterUnits="userSpaceOnUse" x="10" y="0" width="1539" height="223.2">
							<feColorMatrix  type="matrix" values="1 0 0 0 0  0 1 0 0 0  0 0 1 0 0  0 0 0 1 0"/>
						</filter>
					</defs>
					<mask maskUnits="userSpaceOnUse" x="10" y="0" width="1539" height="223.2" id="mask-8_1_">
						<g class="st11">
							<polygon id="path-7_1_" class="st2" points="10,0 1549,0 1549,223.2 10,223.2 							"/>
						</g>
					</mask>
					<path id="Fill-1_3_" class="st12" d="M1549,162.7c0,0-41.3-54.2-350.9-67.2C963.8,85.7,522.8,234,256.1,222.6
						c-274.6-11.8-245.1-100-245.1-20.5V83.2c0,0,85.7,140.5,245.1,139.3C490.4,220.9,992.9,8,1223.4,0.4
						C1448.1-6.9,1549,83.2,1549,83.2V162.7z"/>
				</g>
			</g>
		</g>
	</g>
</g>
</svg>
