<svg width="1440px" height="383px" viewBox="0 0 1440 383" version="1.1" xmlns="http://www.w3.org/2000/svg" xmlns:xlink="http://www.w3.org/1999/xlink">
    <symbol id="Petal-Bottom">
      <g id="Page-1" stroke="none" stroke-width="1">
          <g id="Artboard-Copy-3" transform="translate(0.000000, -359.000000)">
              <path d="M1440,670.254211 C1329.41823,596.965064 1203.5849,562.691026 1062.5,567.432097 C844.709154,574.859867 440.839018,727.846406 219.457693,729.410147 C102.67701,730.319516 27.7625882,647.967679 2.66453526e-15,610.925883 L0,359 L1440,359 L1440,670.254211 Z M1440,734.065762 L1440,742 L1430.38451,742 C1434.1413,739.438781 1437.32248,736.781919 1440,734.065762 Z M530.768272,742 L0,742 L0,682.596573 C21.5581262,694.53759 77.5034683,723.198221 219.457693,729.507881 C300.211794,733.078328 410.662092,737.42545 530.768272,742 Z" id="Combined-Shape"></path>
          </g>
      </g>
    </symbol>
</svg>